HIERARCHY
ROOT Hips
{
	OFFSET 0.000000 83.214638 0.000000
	CHANNELS 6 Xposition Yposition Zposition Xrotation Yrotation Zrotation
	JOINT Pelvis
	{
		OFFSET 0.000000 0.000000 0.000000
		CHANNELS 3 Xrotation Yrotation Zrotation
		JOINT LeftUpLeg
		{
			OFFSET 8.479700 -4.795502 -0.379100
			CHANNELS 3 Xrotation Yrotation Zrotation
			JOINT LeftLeg
			{
				OFFSET 0.024144 -32.555107 0.112900
				CHANNELS 3 Xrotation Yrotation Zrotation
				JOINT LeftFoot
				{
					OFFSET -0.024144 -32.638630 -3.012600
					CHANNELS 3 Xrotation Yrotation Zrotation
					JOINT LeftToeBase
					{
						OFFSET 0.970200 -13.225400 11.864200
						CHANNELS 3 Xrotation Yrotation Zrotation
						End Site
						{
							OFFSET 0.000000 12.319262 0.000000
						}
					}
					JOINT LFootTongue
					{
						OFFSET 1.142400 -1.059800 6.665200
						CHANNELS 3 Xrotation Yrotation Zrotation
						End Site
						{
							OFFSET 0.000000 12.319262 0.000000
						}
					}
				}
				JOINT LeftPantLeg
				{
					OFFSET 0.918482 -16.533964 -2.284700
					CHANNELS 3 Xrotation Yrotation Zrotation
					End Site
					{
						OFFSET 0.350399 24.744368 0.000000
					}
				}
			}
		}
		JOINT RightUpLeg
		{
			OFFSET -8.479700 -4.795502 -0.379100
			CHANNELS 3 Xrotation Yrotation Zrotation
			JOINT RightLeg
			{
				OFFSET -0.023144 -32.555092 0.112900
				CHANNELS 3 Xrotation Yrotation Zrotation
				JOINT RightFoot
				{
					OFFSET 0.023144 -32.638641 -3.012700
					CHANNELS 3 Xrotation Yrotation Zrotation
					JOINT RightToeBase
					{
						OFFSET -0.970200 -13.225400 11.864200
						CHANNELS 3 Xrotation Yrotation Zrotation
						End Site
						{
							OFFSET 0.000000 12.319244 0.000000
						}
					}
					JOINT RFootTongue
					{
						OFFSET -1.142200 -1.059800 6.665200
						CHANNELS 3 Xrotation Yrotation Zrotation
						End Site
						{
							OFFSET 0.000000 12.319243 0.000000
						}
					}
				}
				JOINT RightPantLeg
				{
					OFFSET -0.919482 -16.533978 -2.284800
					CHANNELS 3 Xrotation Yrotation Zrotation
					End Site
					{
						OFFSET -0.350400 24.744419 0.000000
					}
				}
			}
		}
	}
	JOINT Spine
	{
		OFFSET 0.000000 7.722000 1.166200
		CHANNELS 3 Xrotation Yrotation Zrotation
		JOINT Spine1
		{
			OFFSET 0.000000 12.024101 0.248800
			CHANNELS 3 Xrotation Yrotation Zrotation
			JOINT Spine2
			{
				OFFSET 0.000000 11.502998 -0.491200
				CHANNELS 3 Xrotation Yrotation Zrotation
				JOINT Neck
				{
					OFFSET 0.000000 18.430702 -3.123100
					CHANNELS 3 Xrotation Yrotation Zrotation
					JOINT Head
					{
						OFFSET 0.000000 9.051102 1.034000
						CHANNELS 3 Xrotation Yrotation Zrotation
						JOINT HairB
						{
							OFFSET 0.208400 24.786102 24.822300
							CHANNELS 3 Xrotation Yrotation Zrotation
							End Site
							{
								OFFSET 0.000000 32.263779 0.000000
							}
						}
						JOINT HairA
						{
							OFFSET -7.081100 24.428299 23.196600
							CHANNELS 3 Xrotation Yrotation Zrotation
							End Site
							{
								OFFSET 0.000000 32.263779 0.000000
							}
						}
						JOINT Hat
						{
							OFFSET 16.728800 15.048294 -15.439601
							CHANNELS 3 Xrotation Yrotation Zrotation
							End Site
							{
								OFFSET 0.000000 32.263779 0.000000
							}
						}
					}
				}
				JOINT LeftShoulder
				{
					OFFSET 6.197800 13.665199 -4.064700
					CHANNELS 3 Xrotation Yrotation Zrotation
					JOINT LeftArm
					{
						OFFSET 7.778100 -0.187103 -1.709300
						CHANNELS 3 Xrotation Yrotation Zrotation
						JOINT LeftForeArm
						{
							OFFSET 22.049376 0.000000 0.000000
							CHANNELS 3 Xrotation Yrotation Zrotation
							JOINT LeftHand
							{
								OFFSET 23.009392 0.000000 0.000000
								CHANNELS 3 Xrotation Yrotation Zrotation
								JOINT LeftHandThumb1
								{
									OFFSET 3.507191 -2.063065 3.133727
									CHANNELS 3 Xrotation Yrotation Zrotation
									JOINT LeftHandThumb2
									{
										OFFSET 3.101337 -1.790558 1.790558
										CHANNELS 3 Xrotation Yrotation Zrotation
										JOINT LeftHandThumb3
										{
											OFFSET 3.058640 -1.765907 1.765906
											CHANNELS 3 Xrotation Yrotation Zrotation
											End Site
											{
												OFFSET -0.415260 3.926476 -0.049563
											}
										}
									}
								}
								JOINT LeftHandIndex1
								{
									OFFSET 11.334419 -0.901459 3.706815
									CHANNELS 3 Xrotation Yrotation Zrotation
									JOINT LeftHandIndex2
									{
										OFFSET 3.283112 0.000000 0.000000
										CHANNELS 3 Xrotation Yrotation Zrotation
										JOINT LeftHandIndex3
										{
											OFFSET 3.323853 0.000000 0.000000
											CHANNELS 3 Xrotation Yrotation Zrotation
											End Site
											{
												OFFSET -1.135597 3.097809 0.402452
											}
										}
									}
								}
								JOINT LeftHandMiddle1
								{
									OFFSET 11.335861 0.000000 0.000000
									CHANNELS 3 Xrotation Yrotation Zrotation
									JOINT LeftHandMiddle2
									{
										OFFSET 3.410492 0.000000 0.000000
										CHANNELS 3 Xrotation Yrotation Zrotation
										JOINT LeftHandMiddle3
										{
											OFFSET 3.312172 0.000000 0.000000
											CHANNELS 3 Xrotation Yrotation Zrotation
											End Site
											{
												OFFSET -1.150200 3.080154 0.400270
											}
										}
									}
								}
								JOINT LeftHandRing1
								{
									OFFSET 11.514786 -0.013176 -3.003090
									CHANNELS 3 Xrotation Yrotation Zrotation
									JOINT LeftHandRing2
									{
										OFFSET 3.053307 0.000000 0.000000
										CHANNELS 3 Xrotation Yrotation Zrotation
										JOINT LeftHandRing3
										{
											OFFSET 3.295807 0.000000 0.000000
											CHANNELS 3 Xrotation Yrotation Zrotation
											End Site
											{
												OFFSET -1.281006 3.013344 0.375733
											}
										}
									}
								}
								JOINT LeftHandPinky1
								{
									OFFSET 10.518692 -0.960396 -5.730441
									CHANNELS 3 Xrotation Yrotation Zrotation
									JOINT LeftHandPinky2
									{
										OFFSET 2.861649 0.000000 0.000000
										CHANNELS 3 Xrotation Yrotation Zrotation
										JOINT LeftHandPinky3
										{
											OFFSET 2.863380 0.000000 0.000000
											CHANNELS 3 Xrotation Yrotation Zrotation
											End Site
											{
												OFFSET -0.843597 2.711159 0.369971
											}
										}
									}
								}
							}
							JOINT LSleeve
							{
								OFFSET 6.676277 -0.344902 -1.011730
								CHANNELS 3 Xrotation Yrotation Zrotation
								End Site
								{
									OFFSET 0.000000 14.885353 0.000000
								}
							}
						}
					}
				}
				JOINT RightShoulder
				{
					OFFSET -6.197800 13.665199 -4.064700
					CHANNELS 3 Xrotation Yrotation Zrotation
					JOINT RightArm
					{
						OFFSET -7.778100 -0.187103 -1.709300
						CHANNELS 3 Xrotation Yrotation Zrotation
						JOINT RightForeArm
						{
							OFFSET -22.049376 0.000000 0.000000
							CHANNELS 3 Xrotation Yrotation Zrotation
							JOINT RightHand
							{
								OFFSET -23.009392 0.000000 0.000000
								CHANNELS 3 Xrotation Yrotation Zrotation
								JOINT RightHandThumb1
								{
									OFFSET -3.507191 -2.063065 3.133727
									CHANNELS 3 Xrotation Yrotation Zrotation
									JOINT RightHandThumb2
									{
										OFFSET -3.101337 -1.790558 1.790558
										CHANNELS 3 Xrotation Yrotation Zrotation
										JOINT RightHandThumb3
										{
											OFFSET -3.058640 -1.765907 1.765906
											CHANNELS 3 Xrotation Yrotation Zrotation
											End Site
											{
												OFFSET 0.415260 3.926476 -0.049563
											}
										}
									}
								}
								JOINT RightHandIndex1
								{
									OFFSET -11.334419 -0.901459 3.706815
									CHANNELS 3 Xrotation Yrotation Zrotation
									JOINT RightHandIndex2
									{
										OFFSET -3.283112 0.000000 0.000000
										CHANNELS 3 Xrotation Yrotation Zrotation
										JOINT RightHandIndex3
										{
											OFFSET -3.323853 0.000000 0.000000
											CHANNELS 3 Xrotation Yrotation Zrotation
											End Site
											{
												OFFSET 1.135597 3.097809 0.402452
											}
										}
									}
								}
								JOINT RightHandMiddle1
								{
									OFFSET -11.335861 0.000000 0.000000
									CHANNELS 3 Xrotation Yrotation Zrotation
									JOINT RightHandMiddle2
									{
										OFFSET -3.410492 0.000000 0.000000
										CHANNELS 3 Xrotation Yrotation Zrotation
										JOINT RightHandMiddle3
										{
											OFFSET -3.312172 0.000000 0.000000
											CHANNELS 3 Xrotation Yrotation Zrotation
											End Site
											{
												OFFSET 1.150200 3.080154 0.400270
											}
										}
									}
								}
								JOINT RightHandRing1
								{
									OFFSET -11.514786 -0.013176 -3.003090
									CHANNELS 3 Xrotation Yrotation Zrotation
									JOINT RightHandRing2
									{
										OFFSET -3.053307 0.000000 0.000000
										CHANNELS 3 Xrotation Yrotation Zrotation
										JOINT RightHandRing3
										{
											OFFSET -3.295807 0.000000 0.000000
											CHANNELS 3 Xrotation Yrotation Zrotation
											End Site
											{
												OFFSET 1.281006 3.013344 0.375733
											}
										}
									}
								}
								JOINT RightHandPinky1
								{
									OFFSET -10.518692 -0.960396 -5.730441
									CHANNELS 3 Xrotation Yrotation Zrotation
									JOINT RightHandPinky2
									{
										OFFSET -2.861649 0.000000 0.000000
										CHANNELS 3 Xrotation Yrotation Zrotation
										JOINT RightHandPinky3
										{
											OFFSET -2.863380 0.000000 0.000000
											CHANNELS 3 Xrotation Yrotation Zrotation
											End Site
											{
												OFFSET 0.843597 2.711159 0.369971
											}
										}
									}
								}
							}
							JOINT RSleeve
							{
								OFFSET -6.676277 -0.344902 -1.011730
								CHANNELS 3 Xrotation Yrotation Zrotation
								End Site
								{
									OFFSET 0.000000 14.885353 0.000000
								}
							}
						}
					}
				}
				JOINT Backpack
				{
					OFFSET 0.000000 -2.471497 36.677502
					CHANNELS 3 Xrotation Yrotation Zrotation
					End Site
					{
						OFFSET 0.000000 20.427315 0.000000
					}
				}
				JOINT Hood
				{
					OFFSET 0.000000 18.754097 -10.431000
					CHANNELS 3 Xrotation Yrotation Zrotation
					JOINT Hood1
					{
						OFFSET 0.000000 -5.011002 -7.685901
						CHANNELS 3 Xrotation Yrotation Zrotation
						End Site
						{
							OFFSET 0.000000 9.175140 0.000000
						}
					}
				}
				JOINT LHoodieString
				{
					OFFSET 5.250500 16.397697 3.089900
					CHANNELS 3 Xrotation Yrotation Zrotation
					JOINT LHoodieString1
					{
						OFFSET 0.257700 -6.364304 3.694600
						CHANNELS 3 Xrotation Yrotation Zrotation
						JOINT LHoodieString2
						{
							OFFSET 0.000000 -9.643799 2.679100
							CHANNELS 3 Xrotation Yrotation Zrotation
							End Site
							{
								OFFSET 0.000000 10.009018 0.000000
							}
						}
					}
				}
				JOINT RHoodieString
				{
					OFFSET -5.250500 16.397697 3.089900
					CHANNELS 3 Xrotation Yrotation Zrotation
					JOINT RHoodieString1
					{
						OFFSET -0.257700 -6.364304 3.694600
						CHANNELS 3 Xrotation Yrotation Zrotation
						JOINT RHoodieString2
						{
							OFFSET 0.000000 -9.643799 2.679100
							CHANNELS 3 Xrotation Yrotation Zrotation
							End Site
							{
								OFFSET 0.000000 10.009018 0.000000
							}
						}
					}
				}
			}
			JOINT LBackpack_Strap
			{
				OFFSET 15.223200 -7.719803 -6.610900
				CHANNELS 3 Xrotation Yrotation Zrotation
				End Site
				{
					OFFSET 0.000000 16.040596 0.000000
				}
			}
			JOINT RBackpack_Strap
			{
				OFFSET -15.223000 -7.719803 -6.610900
				CHANNELS 3 Xrotation Yrotation Zrotation
				End Site
				{
					OFFSET 0.000000 16.040596 0.000000
				}
			}
		}
	}
	JOINT BoyFacialAnim_Joint
	{
		OFFSET 1.000000 -82.208099 -1.550900
		CHANNELS 3 Xrotation Yrotation Zrotation
		End Site
		{
			OFFSET 0.000000 30.012791 0.000000
		}
	}
}
MOTION
Frames: 4
Frame Time: 0.033333
-17.273008 81.855484 29.248575 -168.697285 -115.793495 -170.420665 -0.000000 0.000001 -0.000000 -19.699546 11.335813 5.369043 29.088276 8.434562 -3.714703 -8.434736 0.161630 2.590056 -0.000000 0.000000 -0.000000 -0.000000 0.000000 -0.000000 0.000001 -0.000002 0.000001 -24.983843 -7.197454 -12.350462 32.704500 -0.904008 -2.689886 6.015229 0.407786 14.525712 0.000001 -0.000000 0.000000 0.000001 -0.000000 0.000000 -0.000000 0.000001 -0.000002 6.207378 1.759759 -1.231710 5.879046 1.777970 0.244274 5.906497 1.678174 0.257577 7.402248 -0.500755 3.111325 -6.808715 -3.170354 8.576540 -0.000002 0.000000 -0.000001 -0.000002 0.000000 -0.000001 -0.000002 0.000000 -0.000001 0.289162 -11.778222 -13.765482 -1.175637 -9.393247 -52.013601 157.009602 -128.773887 155.992300 -7.622015 10.635357 24.794067 2.333967 -4.852038 -3.963487 13.533802 36.265893 -6.789664 -0.000000 -0.000001 0.000002 2.878043 7.353418 -58.659652 6.385717 5.826679 -95.251865 -0.000002 -0.000001 -0.000005 2.878031 7.353410 -58.659652 6.420575 5.823386 -95.595246 0.000000 -0.000001 -0.000003 3.051710 7.454258 -60.629718 5.249917 5.820217 -84.092804 -0.000002 -0.000001 -0.000000 2.878034 7.353382 -58.659666 3.100875 5.166450 -61.922222 0.000002 0.000000 0.000002 -0.000000 -0.000002 -0.000000 -0.185138 13.131026 18.732222 -20.769109 5.758531 51.760577 347.957239 12.312991 -354.881985 -4.794120 -10.277168 -4.650836 13.733206 -0.288366 1.663513 8.835131 -35.799316 -3.552887 0.000001 0.000001 0.000001 1.936467 -6.022320 53.483086 2.347084 -4.044962 60.235220 -0.000000 -0.000003 0.000001 2.647264 -6.453700 63.721191 1.150708 -3.066865 41.125088 -0.000000 0.000002 0.000002 6.790413 -7.635674 75.272776 -0.000006 -0.000002 0.000040 -0.000001 -0.000000 0.000002 10.260524 -9.487169 68.404877 0.286530 -1.609904 20.182408 -0.000000 0.000003 -0.000003 0.000002 0.000000 -0.000001 0.000001 -0.000001 0.000001 0.000001 -0.000001 0.000001 0.000001 -0.000001 0.000001 0.000001 -0.000001 0.000001 0.000001 -0.000001 0.000001 0.000001 -0.000001 0.000001 0.000001 -0.000001 0.000001 0.000001 -0.000001 0.000001 0.000001 -0.000001 0.000001 0.000001 -0.000002 0.000001 0.000001 -0.000002 0.000001 -0.000000 0.000001 -0.000000 
-17.761744 82.037811 28.907558 -167.464900 -114.155527 -169.291197 -0.000000 0.000001 0.000000 -19.415059 11.603541 5.798335 28.626272 8.837902 -3.555515 -8.147975 1.119722 2.470362 -0.000000 -0.000000 0.000000 -0.000000 -0.000000 0.000000 -0.000000 -0.000003 0.000000 -23.491321 -8.033779 -12.639943 29.771616 -4.239122 -2.545802 5.147113 -0.099911 12.908886 0.000001 0.000000 0.000000 0.000001 0.000000 0.000000 -0.000000 -0.000000 -0.000000 6.067633 2.271485 -1.033152 5.768636 2.234696 0.290346 5.801541 2.140474 0.304771 7.168892 1.238958 3.234947 -8.167276 7.251781 6.407188 -0.000000 -0.000003 0.000001 -0.000000 -0.000003 0.000001 -0.000000 -0.000003 0.000001 0.267800 -11.683871 -14.105478 -0.881744 -10.226604 -52.344162 158.018489 -129.009801 156.599791 -7.516925 10.259855 24.390604 2.333967 -4.852040 -3.963486 13.533800 36.265893 -6.789659 -0.000000 -0.000000 0.000000 2.878041 7.353418 -58.659645 6.385713 5.826681 -95.251858 -0.000001 -0.000002 -0.000002 2.878027 7.353408 -58.659652 6.420576 5.823384 -95.595246 0.000002 0.000001 0.000000 3.051707 7.454254 -60.629718 5.249921 5.820218 -84.092804 -0.000001 -0.000004 -0.000001 2.878033 7.353382 -58.659659 3.100874 5.166452 -61.922222 0.000001 0.000000 0.000001 -0.000001 -0.000002 -0.000001 -0.171832 13.165622 18.545191 -20.992486 7.012165 52.182041 348.810958 12.633199 -354.723607 -4.887482 -11.003203 -5.522775 13.732532 -0.287363 1.664071 8.834895 -35.797114 -3.552752 0.000001 0.000002 0.000003 1.933302 -6.019940 53.468459 2.346320 -4.044517 60.224346 -0.000000 0.000000 -0.000000 2.646859 -6.453496 63.715358 1.150501 -3.066623 41.121209 -0.000001 -0.000000 -0.000000 6.790779 -7.635926 75.270256 0.000007 0.000006 0.000103 0.000001 0.000004 -0.000001 10.261254 -9.488482 68.403983 0.286468 -1.609763 20.180561 -0.000001 0.000001 -0.000001 0.000003 0.000001 -0.000001 -0.000000 0.000001 -0.000000 -0.000000 0.000001 -0.000000 -0.000000 0.000001 -0.000000 -0.000000 0.000001 -0.000000 -0.000000 0.000001 -0.000001 -0.000003 -0.000001 -0.000001 -0.000000 0.000001 -0.000000 -0.000000 0.000001 -0.000001 -0.000003 -0.000001 -0.000001 0.000001 0.000001 -0.000000 0.000001 0.000001 -0.000000 -0.000000 0.000001 0.000000 
-18.288982 82.250664 28.468725 -166.273155 -113.025458 -168.211809 -0.000000 0.000000 0.000000 -19.062365 11.838641 6.208418 27.836453 8.827354 -3.395339 -7.745189 2.151318 2.561971 -0.000001 0.000001 -0.000001 -0.000001 0.000001 -0.000000 -0.000000 -0.000000 0.000000 -21.600784 -8.729304 -12.737435 26.180223 -8.123039 -2.863611 5.196013 -1.371618 10.503577 -0.000000 -0.000000 0.000000 -0.000000 -0.000000 0.000000 -0.000001 -0.000000 -0.000000 5.935553 2.728278 -0.778709 5.661079 2.638928 0.364686 5.697073 2.552580 0.379906 6.987699 2.889039 3.189184 -9.142012 16.936371 4.544682 -0.000001 -0.000002 0.000000 -0.000001 -0.000002 0.000000 -0.000001 -0.000002 0.000000 0.250600 -11.602081 -14.387210 -0.696510 -11.355585 -52.501653 159.607492 -129.789946 157.529202 -7.417299 9.905321 23.969060 2.333970 -4.852040 -3.963485 13.533805 36.265893 -6.789664 -0.000000 0.000001 0.000001 2.878044 7.353414 -58.659645 6.385714 5.826682 -95.251865 0.000001 0.000000 -0.000004 2.878032 7.353407 -58.659645 6.420577 5.823386 -95.595246 -0.000000 -0.000001 0.000004 3.051709 7.454254 -60.629725 5.249917 5.820216 -84.092804 -0.000001 -0.000001 -0.000002 2.878034 7.353380 -58.659652 3.100874 5.166451 -61.922222 0.000002 0.000001 -0.000002 -0.000000 0.000003 0.000000 -0.157541 13.173591 18.372073 -21.159369 8.168062 52.787684 349.477284 13.014560 -354.517608 -4.999906 -11.608308 -6.513765 13.732703 -0.289456 1.660139 8.835020 -35.798002 -3.552738 -0.000001 0.000001 0.000004 1.937053 -6.022736 53.480146 2.346803 -4.044777 60.231190 -0.000000 0.000001 0.000002 2.646647 -6.453402 63.713480 1.150574 -3.066733 41.122544 0.000001 0.000001 -0.000000 6.790130 -7.636200 75.262783 0.000007 -0.000034 0.000291 0.000000 0.000002 0.000004 10.259507 -9.487736 68.398129 0.286581 -1.610044 20.184184 0.000000 0.000000 0.000000 0.000005 0.000001 -0.000001 0.000001 -0.000001 -0.000000 0.000001 -0.000001 -0.000000 0.000001 -0.000001 -0.000000 0.000001 -0.000001 -0.000000 0.000001 -0.000001 -0.000000 -0.000001 -0.000001 -0.000000 0.000001 -0.000001 -0.000000 0.000001 -0.000001 -0.000000 -0.000001 -0.000001 -0.000000 0.000001 0.000001 -0.000000 0.000001 0.000001 -0.000000 -0.000000 0.000000 0.000000 
-18.847610 82.455811 27.921463 -165.202059 -112.377874 -167.272262 0.000000 0.000000 -0.000000 -18.792261 11.994400 6.689813 26.988972 8.685586 -3.193228 -7.230559 2.887534 2.561303 0.000000 0.000001 -0.000000 0.000000 0.000001 -0.000000 0.000001 0.000001 0.000001 -19.427643 -9.268515 -12.659077 22.195880 -9.959100 -3.608663 5.891343 -3.398165 8.428649 0.000000 -0.000001 0.000001 0.000000 -0.000001 0.000001 0.000000 -0.000000 -0.000002 5.819294 3.081977 -0.492933 5.558547 2.944012 0.456667 5.596278 2.864516 0.471056 6.845386 4.364444 2.943818 -9.847367 25.310077 2.970035 -0.000001 -0.000001 0.000000 -0.000001 -0.000001 0.000000 -0.000001 -0.000001 0.000000 0.237835 -11.510104 -14.620384 -0.607455 -12.387280 -52.644083 161.560721 -130.714043 158.724608 -7.332911 9.612299 23.546051 2.333967 -4.852041 -3.963485 13.533802 36.265893 -6.789661 0.000000 -0.000002 -0.000000 2.878044 7.353414 -58.659652 6.385714 5.826681 -95.251858 0.000000 -0.000001 -0.000000 2.878027 7.353406 -58.659659 6.420578 5.823385 -95.595246 0.000003 -0.000000 0.000002 3.051707 7.454258 -60.629718 5.249918 5.820216 -84.092804 -0.000000 0.000000 -0.000000 2.878033 7.353382 -58.659659 3.100873 5.166450 -61.922229 0.000001 -0.000001 -0.000000 0.000000 0.000001 -0.000000 -0.141569 13.140792 18.216072 -21.268381 9.155563 53.569768 350.004055 13.468425 -354.303878 -5.126321 -12.100588 -7.594295 13.735504 -0.292740 1.660906 8.836036 -35.807052 -3.553182 -0.000001 0.000004 0.000003 1.948907 -6.031469 53.544981 2.350125 -4.046689 60.278496 -0.000000 -0.000000 0.000002 2.648515 -6.454310 63.739920 1.151504 -3.067798 41.139998 0.000000 0.000001 -0.000000 6.787868 -7.634914 75.274162 -0.000011 -0.000190 0.002229 -0.000001 0.000000 0.000002 10.255123 -9.485446 68.400766 0.286775 -1.610575 20.191221 0.000000 0.000004 0.000003 0.000000 -0.000000 -0.000000 0.000000 -0.000000 0.000000 0.000000 -0.000000 0.000000 0.000000 -0.000000 0.000000 0.000000 -0.000000 0.000000 0.000000 -0.000000 -0.000000 -0.000000 0.000002 -0.000000 0.000000 -0.000000 0.000000 0.000000 -0.000000 -0.000000 -0.000000 0.000002 -0.000000 0.000001 -0.000001 -0.000000 0.000001 -0.000001 -0.000000 0.000000 0.000000 -0.000000 
